<svg width="68" height="62" viewBox="0 0 68 62" fill="none" xmlns="http://www.w3.org/2000/svg">
<path d="M49.0003 0C43.2003 0 37.6337 2.7 34.0003 6.96667C30.367 2.7 24.8003 0 19.0003 0C8.73366 0 0.666992 8.06667 0.666992 18.3333C0.666992 30.9333 12.0003 41.2 29.167 56.8L34.0003 61.1667L38.8337 56.7667C56.0003 41.2 67.3337 30.9333 67.3337 18.3333C67.3337 8.06667 59.267 0 49.0003 0ZM34.3337 51.8333L34.0003 52.1667L33.667 51.8333C17.8003 37.4667 7.33366 27.9667 7.33366 18.3333C7.33366 11.6667 12.3337 6.66667 19.0003 6.66667C24.1337 6.66667 29.1337 9.96667 30.9003 14.5333H37.1337C38.867 9.96667 43.867 6.66667 49.0003 6.66667C55.667 6.66667 60.667 11.6667 60.667 18.3333C60.667 27.9667 50.2003 37.4667 34.3337 51.8333Z" fill="black"/>
</svg>
