<svg width="80" height="80" viewBox="0 0 80 80" fill="none" xmlns="http://www.w3.org/2000/svg">
<path opacity="0.3" d="M54.9997 16.6667C49.8663 16.6667 44.8663 19.9667 43.133 24.5334H36.8997C35.133 19.9667 30.133 16.6667 24.9997 16.6667C18.333 16.6667 13.333 21.6667 13.333 28.3334C13.333 37.9668 23.7997 47.4667 39.6663 61.8334L39.9997 62.1668L40.333 61.8334C56.1997 47.4667 66.6663 37.9668 66.6663 28.3334C66.6663 21.6667 61.6663 16.6667 54.9997 16.6667Z" fill="black"/>
<path d="M55.0003 10C49.2003 10 43.6337 12.7 40.0003 16.9667C36.367 12.7 30.8003 10 25.0003 10C14.7337 10 6.66699 18.0667 6.66699 28.3333C6.66699 40.9333 18.0003 51.2 35.167 66.8L40.0003 71.1667L44.8337 66.7667C62.0003 51.2 73.3337 40.9333 73.3337 28.3333C73.3337 18.0667 65.267 10 55.0003 10ZM40.3337 61.8333L40.0003 62.1667L39.667 61.8333C23.8003 47.4667 13.3337 37.9667 13.3337 28.3333C13.3337 21.6667 18.3337 16.6667 25.0003 16.6667C30.1337 16.6667 35.1337 19.9667 36.9003 24.5333H43.1337C44.867 19.9667 49.867 16.6667 55.0003 16.6667C61.667 16.6667 66.667 21.6667 66.667 28.3333C66.667 37.9667 56.2003 47.4667 40.3337 61.8333Z" fill="black"/>
</svg>
