<svg width="191" height="23" viewBox="0 0 191 23" fill="none" xmlns="http://www.w3.org/2000/svg">
<path d="M15.7021 16.0835V18H2.25V16.0835H15.7021ZM2.62842 16.0835V22.3701H0.296875L0.284668 16.0835H2.62842ZM17.7529 16.0835L17.7285 22.3579H15.397V16.0835H17.7529ZM13.395 0.226562V2.15527H5.60693V0.226562H13.395ZM15.4214 0.226562V18H13.0776V0.226562H15.4214ZM4.80127 0.226562H7.15723L6.79102 7.37988C6.74219 8.4541 6.64046 9.44694 6.48584 10.3584C6.33122 11.2617 6.13997 12.0877 5.91211 12.8364C5.68424 13.5851 5.42383 14.2565 5.13086 14.8506C4.83789 15.4365 4.52458 15.9451 4.19092 16.3765C3.85726 16.7996 3.50732 17.1496 3.14111 17.4263C2.78304 17.6948 2.4209 17.8861 2.05469 18H0.980469V16.0835H1.7373C1.94889 15.8556 2.18896 15.526 2.45752 15.0947C2.73421 14.6634 3.00684 14.106 3.27539 13.4224C3.55208 12.7306 3.79215 11.8883 3.99561 10.8955C4.20719 9.90267 4.34961 8.73079 4.42285 7.37988L4.80127 0.226562ZM25.6631 18.2441C24.7435 18.2441 23.9093 18.0895 23.1606 17.7803C22.4201 17.4629 21.7812 17.0194 21.2441 16.4497C20.7152 15.88 20.3083 15.2046 20.0234 14.4233C19.7386 13.6421 19.5962 12.7876 19.5962 11.8599V11.3472C19.5962 10.2729 19.7549 9.31673 20.0723 8.47852C20.3896 7.63216 20.821 6.91602 21.3662 6.33008C21.9115 5.74414 22.5299 5.30062 23.2217 4.99951C23.9134 4.6984 24.6296 4.54785 25.3701 4.54785C26.3141 4.54785 27.1279 4.71061 27.8115 5.03613C28.5033 5.36165 29.0688 5.81738 29.5083 6.40332C29.9478 6.98112 30.2733 7.66471 30.4849 8.4541C30.6965 9.23535 30.8022 10.0898 30.8022 11.0176V12.0308H20.939V10.1875H28.5439V10.0166C28.5114 9.43066 28.3893 8.861 28.1777 8.30762C27.9743 7.75423 27.6488 7.2985 27.2012 6.94043C26.7536 6.58236 26.1432 6.40332 25.3701 6.40332C24.8574 6.40332 24.3854 6.51318 23.9541 6.73291C23.5228 6.9445 23.1525 7.26188 22.8433 7.68506C22.534 8.10824 22.2939 8.625 22.123 9.23535C21.9521 9.8457 21.8667 10.5496 21.8667 11.3472V11.8599C21.8667 12.4865 21.9521 13.0765 22.123 13.6299C22.3021 14.1751 22.5584 14.6553 22.8921 15.0703C23.2339 15.4854 23.6449 15.8109 24.125 16.0469C24.6133 16.2829 25.1667 16.4009 25.7852 16.4009C26.5827 16.4009 27.2581 16.2381 27.8115 15.9126C28.3649 15.5871 28.8491 15.1517 29.2642 14.6064L30.6313 15.6929C30.3465 16.1242 29.9844 16.5352 29.5449 16.9258C29.1055 17.3164 28.5643 17.6338 27.9214 17.8779C27.2866 18.1221 26.5339 18.2441 25.6631 18.2441ZM38.6758 4.79199V18H36.4053V4.79199H38.6758ZM43.1069 4.79199V6.62305H32.0596V4.79199H43.1069ZM49.6377 16.3887C50.1748 16.3887 50.6712 16.2788 51.127 16.0591C51.5827 15.8394 51.957 15.5382 52.25 15.1558C52.543 14.7651 52.7098 14.3216 52.7505 13.8252H54.8989C54.8582 14.6064 54.5938 15.3348 54.1055 16.0103C53.6253 16.6776 52.9946 17.2188 52.2134 17.6338C51.4321 18.0407 50.5736 18.2441 49.6377 18.2441C48.6449 18.2441 47.7782 18.0692 47.0376 17.7192C46.3052 17.3693 45.6948 16.8892 45.2065 16.2788C44.7264 15.6685 44.3643 14.9686 44.1201 14.1792C43.8841 13.3817 43.7661 12.5394 43.7661 11.6523V11.1396C43.7661 10.2526 43.8841 9.41439 44.1201 8.625C44.3643 7.82747 44.7264 7.12354 45.2065 6.51318C45.6948 5.90283 46.3052 5.42269 47.0376 5.07275C47.7782 4.72282 48.6449 4.54785 49.6377 4.54785C50.6712 4.54785 51.5745 4.75944 52.3477 5.18262C53.1208 5.59766 53.7271 6.16732 54.1665 6.8916C54.6141 7.60775 54.8582 8.42155 54.8989 9.33301H52.7505C52.7098 8.78776 52.5552 8.29541 52.2866 7.85596C52.0262 7.4165 51.6681 7.06657 51.2124 6.80615C50.7648 6.5376 50.2399 6.40332 49.6377 6.40332C48.946 6.40332 48.3641 6.54167 47.8921 6.81836C47.4282 7.08691 47.0579 7.45312 46.7812 7.91699C46.5127 8.37272 46.3174 8.88135 46.1953 9.44287C46.0814 9.99626 46.0244 10.5618 46.0244 11.1396V11.6523C46.0244 12.2301 46.0814 12.7998 46.1953 13.3613C46.3092 13.9229 46.5005 14.4315 46.769 14.8872C47.0457 15.3429 47.416 15.7091 47.8799 15.9858C48.3519 16.2544 48.9378 16.3887 49.6377 16.3887ZM59.8916 4.79199V18H57.6333V4.79199H59.8916ZM68.5586 4.79199L62.2964 12.3604H59.1348L58.793 10.3828H61.3809L65.812 4.79199H68.5586ZM66.1294 18L61.271 12.0186L62.7236 10.3828L68.998 18H66.1294ZM78.7515 15.7417V8.94238C78.7515 8.42155 78.6457 7.96989 78.4341 7.5874C78.2306 7.19678 77.9214 6.89567 77.5063 6.68408C77.0913 6.47249 76.5786 6.3667 75.9683 6.3667C75.3986 6.3667 74.8981 6.46436 74.4668 6.65967C74.0436 6.85498 73.71 7.11133 73.4658 7.42871C73.2298 7.74609 73.1118 8.08789 73.1118 8.4541H70.8535C70.8535 7.9821 70.9756 7.51416 71.2197 7.05029C71.4639 6.58643 71.8138 6.16732 72.2695 5.79297C72.7334 5.41048 73.2868 5.10938 73.9297 4.88965C74.5807 4.66178 75.305 4.54785 76.1025 4.54785C77.0628 4.54785 77.9092 4.71061 78.6416 5.03613C79.3822 5.36165 79.96 5.854 80.375 6.51318C80.7982 7.16423 81.0098 7.9821 81.0098 8.9668V15.1191C81.0098 15.5586 81.0464 16.0265 81.1196 16.5229C81.201 17.0194 81.319 17.4466 81.4736 17.8047V18H79.1177C79.0037 17.7396 78.9142 17.3937 78.8491 16.9624C78.784 16.5229 78.7515 16.116 78.7515 15.7417ZM79.1421 9.99219L79.1665 11.5791H76.8838C76.2409 11.5791 75.6672 11.632 75.1626 11.7378C74.658 11.8354 74.2349 11.986 73.8931 12.1895C73.5513 12.3929 73.2909 12.6493 73.1118 12.9585C72.9328 13.2596 72.8433 13.6136 72.8433 14.0205C72.8433 14.4355 72.9368 14.814 73.124 15.1558C73.3112 15.4976 73.592 15.7702 73.9663 15.9736C74.3488 16.1689 74.8167 16.2666 75.3701 16.2666C76.0618 16.2666 76.6722 16.1201 77.2012 15.8271C77.7301 15.5342 78.1493 15.1761 78.4585 14.7529C78.7759 14.3298 78.9468 13.9188 78.9712 13.52L79.9355 14.6064C79.8786 14.9482 79.724 15.3267 79.4717 15.7417C79.2194 16.1567 78.8817 16.5555 78.4585 16.938C78.0435 17.3123 77.547 17.6257 76.9692 17.8779C76.3996 18.1221 75.7567 18.2441 75.0405 18.2441C74.1453 18.2441 73.36 18.0692 72.6846 17.7192C72.0173 17.3693 71.4964 16.9014 71.1221 16.3154C70.7559 15.7214 70.5728 15.0581 70.5728 14.3257C70.5728 13.6177 70.7111 12.9951 70.9878 12.458C71.2645 11.9128 71.6632 11.4611 72.1841 11.103C72.7049 10.7368 73.3315 10.4601 74.064 10.2729C74.7964 10.0858 75.6143 9.99219 76.5176 9.99219H79.1421ZM87.2354 11.7012H89.6768L85.856 18H83.4146L87.2354 11.7012ZM89.1274 4.79199H94.645V18H92.3867V6.62305H89.1274C88.4845 6.62305 87.9596 6.73291 87.5527 6.95264C87.1458 7.16423 86.8488 7.44092 86.6616 7.78271C86.4744 8.12451 86.3809 8.47852 86.3809 8.84473C86.3809 9.2028 86.4663 9.54867 86.6372 9.88232C86.8081 10.2078 87.0767 10.4764 87.4429 10.688C87.8091 10.8996 88.2811 11.0054 88.8589 11.0054H92.9971V12.8608H88.8589C88.1021 12.8608 87.4307 12.7591 86.8447 12.5557C86.2588 12.3522 85.7624 12.0715 85.3555 11.7134C84.9486 11.3472 84.6393 10.9199 84.4277 10.4316C84.2161 9.93522 84.1104 9.39811 84.1104 8.82031C84.1104 8.24251 84.2202 7.70947 84.4399 7.22119C84.6678 6.73291 84.9933 6.30566 85.4165 5.93945C85.8478 5.57324 86.3727 5.29248 86.9912 5.09717C87.6178 4.89372 88.3299 4.79199 89.1274 4.79199ZM103.886 11.5425V11.2617C103.886 10.3096 104.024 9.4266 104.301 8.61279C104.577 7.79085 104.976 7.07878 105.497 6.47656C106.018 5.86621 106.649 5.39421 107.389 5.06055C108.13 4.71875 108.96 4.54785 109.879 4.54785C110.807 4.54785 111.641 4.71875 112.382 5.06055C113.131 5.39421 113.765 5.86621 114.286 6.47656C114.815 7.07878 115.218 7.79085 115.495 8.61279C115.771 9.4266 115.91 10.3096 115.91 11.2617V11.5425C115.91 12.4946 115.771 13.3776 115.495 14.1914C115.218 15.0052 114.815 15.7173 114.286 16.3276C113.765 16.9299 113.135 17.4019 112.394 17.7437C111.662 18.0773 110.832 18.2441 109.904 18.2441C108.976 18.2441 108.142 18.0773 107.401 17.7437C106.661 17.4019 106.026 16.9299 105.497 16.3276C104.976 15.7173 104.577 15.0052 104.301 14.1914C104.024 13.3776 103.886 12.4946 103.886 11.5425ZM106.144 11.2617V11.5425C106.144 12.2017 106.221 12.8242 106.376 13.4102C106.531 13.988 106.763 14.5007 107.072 14.9482C107.389 15.3958 107.784 15.7498 108.256 16.0103C108.728 16.2625 109.277 16.3887 109.904 16.3887C110.522 16.3887 111.063 16.2625 111.527 16.0103C111.999 15.7498 112.39 15.3958 112.699 14.9482C113.008 14.5007 113.24 13.988 113.395 13.4102C113.558 12.8242 113.639 12.2017 113.639 11.5425V11.2617C113.639 10.6107 113.558 9.99626 113.395 9.41846C113.24 8.83252 113.004 8.31576 112.687 7.86816C112.378 7.41243 111.987 7.05436 111.515 6.79395C111.051 6.53353 110.506 6.40332 109.879 6.40332C109.261 6.40332 108.716 6.53353 108.244 6.79395C107.78 7.05436 107.389 7.41243 107.072 7.86816C106.763 8.31576 106.531 8.83252 106.376 9.41846C106.221 9.99626 106.144 10.6107 106.144 11.2617ZM120.243 4.79199H122.501L122.306 9.73584C122.257 10.9891 122.115 12.0715 121.879 12.9829C121.643 13.8944 121.342 14.6715 120.976 15.3145C120.609 15.9492 120.198 16.4823 119.743 16.9136C119.295 17.3449 118.831 17.707 118.351 18H117.228L117.289 16.1567L117.753 16.1445C118.021 15.8271 118.282 15.5016 118.534 15.168C118.786 14.8262 119.018 14.4233 119.23 13.9595C119.442 13.4875 119.617 12.9137 119.755 12.2383C119.901 11.5547 119.995 10.7205 120.036 9.73584L120.243 4.79199ZM120.805 4.79199H128.751V18H126.493V6.87939H120.805V4.79199ZM116.715 16.1445H130.448V21.894H128.19V18H118.974V21.894H116.703L116.715 16.1445ZM138.432 18.2441C137.512 18.2441 136.678 18.0895 135.929 17.7803C135.189 17.4629 134.55 17.0194 134.013 16.4497C133.484 15.88 133.077 15.2046 132.792 14.4233C132.507 13.6421 132.365 12.7876 132.365 11.8599V11.3472C132.365 10.2729 132.523 9.31673 132.841 8.47852C133.158 7.63216 133.59 6.91602 134.135 6.33008C134.68 5.74414 135.299 5.30062 135.99 4.99951C136.682 4.6984 137.398 4.54785 138.139 4.54785C139.083 4.54785 139.896 4.71061 140.58 5.03613C141.272 5.36165 141.837 5.81738 142.277 6.40332C142.716 6.98112 143.042 7.66471 143.253 8.4541C143.465 9.23535 143.571 10.0898 143.571 11.0176V12.0308H133.708V10.1875H141.312V10.0166C141.28 9.43066 141.158 8.861 140.946 8.30762C140.743 7.75423 140.417 7.2985 139.97 6.94043C139.522 6.58236 138.912 6.40332 138.139 6.40332C137.626 6.40332 137.154 6.51318 136.723 6.73291C136.291 6.9445 135.921 7.26188 135.612 7.68506C135.303 8.10824 135.062 8.625 134.892 9.23535C134.721 9.8457 134.635 10.5496 134.635 11.3472V11.8599C134.635 12.4865 134.721 13.0765 134.892 13.6299C135.071 14.1751 135.327 14.6553 135.661 15.0703C136.002 15.4854 136.413 15.8109 136.894 16.0469C137.382 16.2829 137.935 16.4009 138.554 16.4009C139.351 16.4009 140.027 16.2381 140.58 15.9126C141.133 15.5871 141.618 15.1517 142.033 14.6064L143.4 15.6929C143.115 16.1242 142.753 16.5352 142.313 16.9258C141.874 17.3164 141.333 17.6338 140.69 17.8779C140.055 18.1221 139.302 18.2441 138.432 18.2441ZM150.211 12.2505L145.207 4.79199H147.929L151.347 10.2607H153.983L153.654 12.2505H150.211ZM151.444 12.0186L147.611 18H144.755L150.016 10.3828L151.444 12.0186ZM155.143 4.79199V18H152.885V4.79199H155.143ZM162.846 4.79199L157.841 12.2505H154.398L154.044 10.2607H156.693L160.111 4.79199H162.846ZM160.429 18L156.583 12.0186L158.036 10.3828L163.285 18H160.429ZM167.753 4.79199H170.011L169.816 9.73584C169.767 10.9891 169.625 12.0715 169.389 12.9829C169.153 13.8944 168.852 14.6715 168.485 15.3145C168.119 15.9492 167.708 16.4823 167.252 16.9136C166.805 17.3449 166.341 17.707 165.861 18H164.738L164.799 16.1567L165.263 16.1445C165.531 15.8271 165.792 15.5016 166.044 15.168C166.296 14.8262 166.528 14.4233 166.74 13.9595C166.951 13.4875 167.126 12.9137 167.265 12.2383C167.411 11.5547 167.505 10.7205 167.545 9.73584L167.753 4.79199ZM168.314 4.79199H176.261V18H174.003V6.87939H168.314V4.79199ZM164.225 16.1445H177.958V21.894H175.7V18H166.483V21.894H164.213L164.225 16.1445ZM188.249 15.7417V8.94238C188.249 8.42155 188.143 7.96989 187.931 7.5874C187.728 7.19678 187.418 6.89567 187.003 6.68408C186.588 6.47249 186.076 6.3667 185.465 6.3667C184.896 6.3667 184.395 6.46436 183.964 6.65967C183.541 6.85498 183.207 7.11133 182.963 7.42871C182.727 7.74609 182.609 8.08789 182.609 8.4541H180.351C180.351 7.9821 180.473 7.51416 180.717 7.05029C180.961 6.58643 181.311 6.16732 181.767 5.79297C182.23 5.41048 182.784 5.10938 183.427 4.88965C184.078 4.66178 184.802 4.54785 185.6 4.54785C186.56 4.54785 187.406 4.71061 188.139 5.03613C188.879 5.36165 189.457 5.854 189.872 6.51318C190.295 7.16423 190.507 7.9821 190.507 8.9668V15.1191C190.507 15.5586 190.543 16.0265 190.617 16.5229C190.698 17.0194 190.816 17.4466 190.971 17.8047V18H188.615C188.501 17.7396 188.411 17.3937 188.346 16.9624C188.281 16.5229 188.249 16.116 188.249 15.7417ZM188.639 9.99219L188.664 11.5791H186.381C185.738 11.5791 185.164 11.632 184.66 11.7378C184.155 11.8354 183.732 11.986 183.39 12.1895C183.048 12.3929 182.788 12.6493 182.609 12.9585C182.43 13.2596 182.34 13.6136 182.34 14.0205C182.34 14.4355 182.434 14.814 182.621 15.1558C182.808 15.4976 183.089 15.7702 183.463 15.9736C183.846 16.1689 184.314 16.2666 184.867 16.2666C185.559 16.2666 186.169 16.1201 186.698 15.8271C187.227 15.5342 187.646 15.1761 187.956 14.7529C188.273 14.3298 188.444 13.9188 188.468 13.52L189.433 14.6064C189.376 14.9482 189.221 15.3267 188.969 15.7417C188.716 16.1567 188.379 16.5555 187.956 16.938C187.541 17.3123 187.044 17.6257 186.466 17.8779C185.897 18.1221 185.254 18.2441 184.538 18.2441C183.642 18.2441 182.857 18.0692 182.182 17.7192C181.514 17.3693 180.993 16.9014 180.619 16.3154C180.253 15.7214 180.07 15.0581 180.07 14.3257C180.07 13.6177 180.208 12.9951 180.485 12.458C180.762 11.9128 181.16 11.4611 181.681 11.103C182.202 10.7368 182.829 10.4601 183.561 10.2729C184.293 10.0858 185.111 9.99219 186.015 9.99219H188.639Z" fill="black" fill-opacity="0.7"/>
</svg>
