<svg width="17" height="16" viewBox="0 0 17 16" fill="none" xmlns="http://www.w3.org/2000/svg">
<path d="M15.6711 0.822563C14.5642 -0.274188 12.763 -0.274188 11.6561 0.822563L2.44017 9.95356C2.42787 9.9655 2.4162 9.97822 2.40519 9.99156C2.32962 10.083 2.44856 9.83397 0.424246 14.7049C0.278308 15.0561 0.359146 15.4564 0.630144 15.725C0.901362 15.9937 1.30556 16.0734 1.65966 15.929C6.53493 13.94 6.35509 14.033 6.45523 13.9316L15.6712 4.80056C16.7781 3.70384 16.7781 1.91931 15.6711 0.822563ZM1.29928 15.062L1.76769 13.9348L2.43689 14.5979L1.29928 15.062ZM3.38487 14.2111L2.15804 12.9956L2.93873 11.1171L5.28084 13.4376L3.38487 14.2111ZM6.11733 12.9404L3.44061 10.2883L9.64856 4.13756L12.3253 6.78959L6.11733 12.9404ZM12.9945 6.12659L10.3178 3.47456L10.987 2.81153L13.6637 5.46359L12.9945 6.12659ZM15.002 4.13763L14.3328 4.80062L11.6561 2.14859L12.3253 1.48559C13.0633 0.754406 14.264 0.754438 15.002 1.48559C15.7399 2.21675 15.7399 3.40644 15.002 4.13763Z" fill="black"/>
</svg>
