<svg width="22" height="22" viewBox="0 0 22 22" fill="none" xmlns="http://www.w3.org/2000/svg">
<path d="M6.76423 12.4437L6.22677 14.4501L4.26235 14.4917C3.67528 13.4028 3.34229 12.157 3.34229 10.8331C3.34229 9.55286 3.65363 8.34561 4.20551 7.28259H4.20593L5.95481 7.60322L6.72092 9.34161C6.56058 9.80908 6.47318 10.3109 6.47318 10.8331C6.47324 11.3998 6.5759 11.9428 6.76423 12.4437Z" fill="#FBBB00"/>
<path d="M18.6481 9.39087C18.7367 9.85788 18.783 10.3402 18.783 10.8331C18.783 11.3858 18.7248 11.925 18.6141 12.445C18.2383 14.2148 17.2563 15.7601 15.8959 16.8536L15.8955 16.8532L13.6927 16.7408L13.3809 14.7946C14.2836 14.2652 14.9891 13.4368 15.3607 12.445H11.2324V9.39087H15.4209H18.6481Z" fill="#518EF8"/>
<path d="M15.8957 16.8533L15.8961 16.8537C14.5731 17.9171 12.8924 18.5534 11.0629 18.5534C8.12283 18.5534 5.56667 16.9101 4.2627 14.4918L6.76457 12.4438C7.41654 14.1839 9.09507 15.4225 11.0629 15.4225C11.9087 15.4225 12.7011 15.1939 13.3811 14.7947L15.8957 16.8533Z" fill="#28B446"/>
<path d="M15.9904 4.89026L13.4894 6.93782C12.7857 6.49795 11.9538 6.24384 11.0626 6.24384C9.05024 6.24384 7.34032 7.53931 6.72101 9.34172L4.20599 7.2827H4.20557C5.49045 4.80543 8.07885 3.11292 11.0626 3.11292C12.9358 3.11292 14.6534 3.78017 15.9904 4.89026Z" fill="#F14336"/>
</svg>
