<svg width="13" height="13" viewBox="0 0 13 13" fill="none" xmlns="http://www.w3.org/2000/svg">
<path fill-rule="evenodd" clip-rule="evenodd" d="M4.12061 0.875H8.62061C10.6914 0.875 12.3706 2.55425 12.3706 4.625V9.125C12.3706 11.1958 10.6914 12.875 8.62061 12.875H4.12061C2.04986 12.875 0.370605 11.1958 0.370605 9.125V4.625C0.370605 2.55425 2.04986 0.875 4.12061 0.875ZM8.62061 11.75C10.0681 11.75 11.2456 10.5725 11.2456 9.125V4.625C11.2456 3.1775 10.0681 2 8.62061 2H4.12061C2.67311 2 1.49561 3.1775 1.49561 4.625V9.125C1.49561 10.5725 2.67311 11.75 4.12061 11.75H8.62061Z" fill="#333333"/>
<path fill-rule="evenodd" clip-rule="evenodd" d="M3.37061 6.875C3.37061 5.21825 4.71386 3.875 6.37061 3.875C8.02736 3.875 9.37061 5.21825 9.37061 6.875C9.37061 8.53175 8.02736 9.875 6.37061 9.875C4.71386 9.875 3.37061 8.53175 3.37061 6.875ZM4.49561 6.875C4.49561 7.9085 5.33711 8.75 6.37061 8.75C7.40411 8.75 8.24561 7.9085 8.24561 6.875C8.24561 5.84075 7.40411 5 6.37061 5C5.33711 5 4.49561 5.84075 4.49561 6.875Z" fill="#333333"/>
<circle cx="9.59555" cy="3.64999" r="0.39975" fill="#333333"/>
</svg>
