<svg width="50" height="50" viewBox="0 0 50 50" fill="none" xmlns="http://www.w3.org/2000/svg">
<path d="M47.8298 24.7837C48.4855 24.7837 48.8134 24.7837 49.0343 24.9019C49.317 25.053 49.51 25.3305 49.5535 25.6481C49.5875 25.8963 49.4735 26.2038 49.2456 26.8186L45.3306 37.3787C45.2122 37.6982 45.153 37.8579 45.0565 37.9809C44.9331 38.1383 44.7653 38.2551 44.5747 38.3161C44.4259 38.3638 44.2555 38.3638 43.9148 38.3638H26.041C25.5657 38.3638 25.328 38.3638 25.1411 38.2846C24.9019 38.1833 24.7114 37.9929 24.6101 37.7537C24.531 37.5668 24.531 37.3291 24.531 36.8538V26.2937C24.531 25.8184 24.531 25.5807 24.6101 25.3938C24.7114 25.1545 24.9019 24.9641 25.1411 24.8628C25.328 24.7837 25.5657 24.7837 26.041 24.7837H47.8298Z" fill="#0BB4A1"/>
<path d="M36.5132 24.7164L43.8237 33.9694L24.6206 24.6773L36.5132 24.7164Z" fill="white"/>
<path d="M25.4688 2.14995C25.4688 1.49958 25.4688 1.1744 25.5859 0.954208C25.7357 0.672574 26.0108 0.479305 26.3266 0.433961C26.5735 0.398508 26.8794 0.508852 27.4911 0.729538L38.2382 4.60633C38.5615 4.72297 38.7232 4.78129 38.8477 4.87762C39.0071 5.00094 39.1255 5.16954 39.1874 5.36132C39.2358 5.51113 39.2358 5.683 39.2358 6.02674V23.6131C39.2358 24.0885 39.2358 24.3261 39.1566 24.5131C39.0553 24.7523 38.8649 24.9427 38.6257 25.044C38.4388 25.1231 38.2011 25.1231 37.7258 25.1231L26.9788 25.1231C26.5034 25.1231 26.2658 25.1231 26.0788 25.044C25.8396 24.9427 25.6492 24.7523 25.5479 24.5131C25.4688 24.3261 25.4688 24.0885 25.4688 23.6131V2.14995Z" fill="#10848D"/>
<path d="M25.4006 13.3039L34.781 6.09262L25.361 25.035L25.4006 13.3039Z" fill="white"/>
<path d="M2.17024 25.123C1.51451 25.123 1.18664 25.123 0.965659 25.0049C0.683019 24.8537 0.489959 24.5762 0.446484 24.2587C0.412492 24.0104 0.526462 23.703 0.754401 23.0882L4.66936 12.5281C4.78781 12.2086 4.84703 12.0488 4.94346 11.9259C5.06691 11.7685 5.23475 11.6517 5.42527 11.5906C5.57408 11.543 5.74445 11.543 6.08519 11.543L23.959 11.543C24.4343 11.543 24.672 11.543 24.8589 11.6221C25.0981 11.7234 25.2886 11.9138 25.3899 12.153C25.469 12.34 25.469 12.5776 25.469 13.053L25.469 23.613C25.469 24.0884 25.469 24.326 25.3899 24.513C25.2886 24.7522 25.0981 24.9426 24.8589 25.0439C24.672 25.123 24.4343 25.123 23.959 25.123H2.17024Z" fill="#C7E7E4"/>
<path d="M13.8408 25.0876L6.53028 15.8345L25.7334 25.1266L13.8408 25.0876Z" fill="white"/>
<path d="M25.4688 47.8501C25.4688 48.5004 25.4688 48.8256 25.3516 49.0458C25.2018 49.3274 24.9267 49.5207 24.6109 49.566C24.364 49.6015 24.0581 49.4911 23.4464 49.2705L12.6993 45.3937C12.376 45.277 12.2143 45.2187 12.0898 45.1224C11.9304 44.9991 11.812 44.8305 11.7501 44.6387C11.7017 44.4889 11.7017 44.317 11.7017 43.9733L11.7017 26.3869C11.7017 25.9115 11.7017 25.6739 11.7809 25.4869C11.8822 25.2477 12.0726 25.0573 12.3118 24.956C12.4987 24.8769 12.7364 24.8769 13.2117 24.8769L23.9587 24.8769C24.4341 24.8769 24.6717 24.8769 24.8587 24.956C25.0979 25.0573 25.2883 25.2477 25.3896 25.4869C25.4688 25.6739 25.4688 25.9115 25.4688 26.3869L25.4688 47.8501Z" fill="#68C7B8"/>
<path d="M25.5369 36.6961L16.1565 43.9074L25.5765 24.965L25.5369 36.6961Z" fill="white"/>
<ellipse cx="25.6411" cy="24.9534" rx="1.20462" ry="1.18826" fill="white"/>
</svg>
