<svg width="22" height="22" viewBox="0 0 22 22" fill="none" xmlns="http://www.w3.org/2000/svg">
<path d="M20.8808 19.8407L20.8808 19.8406L15.7855 14.8269C17.1153 13.3492 17.9299 11.4107 17.9299 9.28069C17.9293 4.65036 14.1158 0.9 9.41464 0.9C4.7135 0.9 0.9 4.65036 0.9 9.28069C0.9 13.911 4.7135 17.6614 9.41464 17.6614C11.414 17.6614 13.2507 16.9807 14.7037 15.8453L19.8246 20.8846C19.8246 20.8846 19.8247 20.8846 19.8247 20.8847C20.1162 21.1718 20.5887 21.1718 20.8802 20.8846C21.1732 20.5967 21.1731 20.1287 20.8808 19.8407ZM9.41464 16.1873C5.53611 16.1873 2.39471 13.0936 2.39471 9.28069C2.39471 5.46774 5.53611 2.37403 9.41464 2.37403C13.2932 2.37403 16.4346 5.46774 16.4346 9.28069C16.4346 13.0936 13.2932 16.1873 9.41464 16.1873Z" fill="black" stroke="black" stroke-width="0.2"/>
</svg>
