<svg width="16" height="13" viewBox="0 0 16 13" fill="none" xmlns="http://www.w3.org/2000/svg">
<path d="M15.3708 2.3275C14.8254 2.56675 14.2442 2.72533 13.6383 2.80233C14.2616 2.43016 14.7374 1.84533 14.961 1.14041C14.3799 1.48691 13.7382 1.73166 13.0544 1.86825C12.5025 1.28066 11.716 0.916748 10.858 0.916748C9.19335 0.916748 7.85318 2.26792 7.85318 3.92433C7.85318 4.16266 7.87335 4.39183 7.92285 4.61C5.4231 4.48808 3.21118 3.29 1.72527 1.46491C1.46585 1.915 1.31368 2.43016 1.31368 2.98475C1.31368 4.02608 1.84993 4.94916 2.64927 5.48358C2.16618 5.47441 1.69227 5.33416 1.29077 5.11325C1.29077 5.12241 1.29077 5.13433 1.29077 5.14625C1.29077 6.60741 2.33302 7.82108 3.69977 8.10066C3.45502 8.16758 3.18827 8.19967 2.91143 8.19967C2.71894 8.19967 2.5246 8.18866 2.34218 8.14833C2.73177 9.33908 3.83727 10.2145 5.15177 10.2429C4.12877 11.0432 2.82985 11.5253 1.42368 11.5253C1.1771 11.5253 0.940602 11.5143 0.704102 11.4841C2.03602 12.343 3.61452 12.8334 5.31677 12.8334C10.8498 12.8334 13.8748 8.25008 13.8748 4.27725C13.8748 4.14433 13.8702 4.016 13.8638 3.88858C14.4605 3.46508 14.9619 2.93616 15.3708 2.3275Z" fill="#333333"/>
</svg>
