<svg width="22" height="21" viewBox="0 0 22 21" fill="none" xmlns="http://www.w3.org/2000/svg">
<path fill-rule="evenodd" clip-rule="evenodd" d="M3.26653 10.9941C3.13186 10.7445 3.13186 10.4417 3.26653 10.1921C4.8895 7.19059 7.88754 4.58887 10.8856 4.58887C13.8836 4.58887 16.8816 7.19059 18.5046 10.1929C18.6393 10.4425 18.6393 10.7453 18.5046 10.995C16.8816 13.9964 13.8836 16.5982 10.8856 16.5982C7.88754 16.5982 4.8895 13.9964 3.26653 10.9941Z" stroke="#828282" stroke-width="1.28671" stroke-linecap="round" stroke-linejoin="round"/>
<path d="M12.7051 8.77388C13.7101 9.77886 13.7101 11.4083 12.7051 12.4132C11.7001 13.4182 10.0707 13.4182 9.06575 12.4132C8.06077 11.4083 8.06077 9.77886 9.06575 8.77388C10.0707 7.7689 11.7001 7.7689 12.7051 8.77388" stroke="#828282" stroke-width="1.22546" stroke-linecap="round" stroke-linejoin="round"/>
</svg>
